/* XPM */
static char * ground2_xpm[] = {
"32 32 3 1",
" 	c #A08662",
".	c #796755",
"+	c #5A4E44",
"                                ",
"                                ",
"                                ",
"                                ",
"                                ",
"                      .+..      ",
"                      +.+.      ",
"                     ...        ",
"                                ",
"           ....                 ",
"        ...++.                  ",
"         ..+..                  ",
"                                ",
"                                ",
"                                ",
"                                ",
" ..                             ",
" ..       +++                   ",
"          .+. +                 ",
"              .         .+++    ",
"                        ....    ",
"                                ",
"                                ",
"            ..                  ",
"             ..                 ",
"                                ",
"                                ",
"                                ",
"       .             .          ",
"                    ...      .. ",
"                    ...      .. ",
"                                "};
