/* XPM */
static char * hoodi_xpm[] = {
"32 32 8 1",
" 	c #A08662",
".	c #3A0911",
"+	c #811426",
"@	c #A11B31",
"#	c #796755",
"$	c #5A4E44",
"%	c #000000",
"&	c #FFFFFF",
"                                ",
"                                ",
"                                ",
"           .......              ",
"          .+@@@@@@.             ",
"         .+@@@....@.  #$##      ",
"        .+@@@.%%%%.@. $#$#      ",
"        .+@@.%%%%%%.@.##        ",
"       .++@@.%%%%%%.@.          ",
"       .+++@.%&%%%&.@.          ",
"       .+.+@.%&%%%&.@.          ",
"       .+.+@.%%%%%%.+.          ",
"        ..++@.%%%%%.+.          ",
"          .+++.%%%.+.           ",
"           ..++...+.            ",
"          .+++@@@@@+.           ",
" ##      .+@@@@@@@@@+.          ",
" ##      .+@@@@@@@@@+.          ",
"         .@@@@@@@@@@@.          ",
"        .+@@@@@@@@@@@.  #$$$    ",
"        .+@@@@@@+@@@@+. ####    ",
"        .+@@@@@@+@@@@+.         ",
"        .+@@@@@+.+@@++.         ",
"       .+++@+@++.++@++.         ",
"       .++++@++.%.++++.         ",
"       .+.++++.%%.++.+.         ",
"        ..+.++.%%%.++.          ",
"         .. ...  %...           ",
"       #    %%    %  #          ",
"             %    % ###      ## ",
"             %    % ###      ## ",
"                                "};
