/* XPM */
static char * exit_xpm[] = {
"32 32 11 1",
" 	c #A08662",
".	c #141B1B",
"+	c #EECF9B",
"@	c #A3754E",
"#	c #D2B37D",
"$	c #C8966B",
"%	c #E66A3A",
"&	c #FFAD5D",
"*	c #796755",
"=	c #5A4E44",
"-	c #965340",
"            .+++.  .+++.        ",
"           .++++....++++.       ",
"        .. .++++@##@++++. ..    ",
"       .++..#+$$$##$$$+#..++.   ",
"       .+++@##$$$$$$$$##@+++.   ",
"      .++++###$$@@@@$$###++++.  ",
"      .++++#$$@@%%%%@@$$#++++.  ",
"      .++###$@%%&&&&&&@$###++.  ",
"      .#$$$@@@@@%%&&%%@@@$$$#.  ",
"      .$++$++@%%&&&&&&@++$++$.  ",
"      .++$++++@@%%%%@@++++$++.  ",
"      .#+$++++++@&&@++++++$+#.  ",
"       .#$#+++++@@@@+++++#$#.   ",
"       .#####+++@++@+++#####.   ",
"        .#$##$###++###$##$#.    ",
"         .#$$$########$$$#.     ",
" **      .@##$$$$$$$$$$##@.     ",
" **       .@###$####$###@.      ",
"         .$$@@@$####$@@@$$.     ",
"         .##$$$@@@@@@$$$##.=    ",
"        .+##$#$$$$$$$$#$##+.    ",
"        .++#$@##$##$##@$#++.    ",
"       .#+++@.@#$##$#@.@+++#.   ",
"       .+#++@.@$$$$$$@.@++#+.   ",
"       .+#++@.@######@.@++#+.   ",
"       -++##@@@######@@@##++-   ",
"        -++$$#$######$#$$++-    ",
"        -+#$#$$$$$$$$$$#$#+-    ",
"       * -#$####$##$####$#-     ",
"          --####$##$####--   ** ",
"            ------------     ** ",
"                 ..             "};
