/* XPM */
static char * lantern_xpm[] = {
"32 32 17 1",
" 	c #4C2F49",
".	c #593756",
"+	c #6E4A48",
"@	c #25131A",
"#	c #78514F",
"$	c #BC4C51",
"%	c #543740",
"&	c #3D253B",
"*	c #483040",
"=	c #D1851E",
"-	c #FFD569",
";	c #90919E",
">	c #ADC1CF",
",	c #BF704D",
"'	c #895A45",
")	c #422C3B",
"!	c #4F3740",
"        ..    ..........      ..",
"++++++++++++++++++++++++++++    ",
"++++++++++++++++++++++++++++    ",
"++++++++++++++@@@@++++++++++    ",
"++++++++++++++@@@@++++++++++    ",
"############@@$$$$@@########    ",
"############@@$$$$@@########    ",
"%%%%%%%%%%@@$$$$@@%%%%%%%%%%&&&&",
"%%%%%%%%%%@@$$$$@@%%%%%%%%%%&&&&",
"%%%%%%%%@@$$$$$$$$@@%%%%%%%%  &&",
"%%%%%%%%@@$$$$$$$$@@%%%%%%%%  &&",
"**%%%%@@$$$$==$$$$$$@@%%%%**&&&&",
"**%%%%@@$$$$==$$$$$$@@%%%%**&&&&",
"&&&&&&@@$$$$--==$$$$@@&&&&&&&&@@",
"&&&&&&@@$$$$--==$$$$@@&&&&&&&&@@",
"**%%%%%%@@==----$$@@%%%%%%**&&&&",
"**%%%%%%@@==----$$@@%%%%%%**&&&&",
"%%%%%%@@;;>>,,,,>>;;@@%%%%%%@@&&",
"%%%%%%@@;;>>,,,,>>;;@@%%%%%%@@&&",
"**%%%%%%@@''''''''@@%%%%%%**&&@@",
"**%%%%%%@@''''''''@@%%%%%%**&&@@",
"&&&&@@@@@@@@>>>>@@@@@@@@&&&&@@&&",
"&&&&@@@@@@@@>>>>@@@@@@@@&&&&@@&&",
"))!!!!!!!!@@@@''@@!!!!!!!!))&&@@",
"))!!!!!!!!@@@@''@@!!!!!!!!))&&@@",
"!!!!!!!!!!@@''''@@!!!!!!!!!!@@@@",
"!!!!!!!!!!@@''''@@!!!!!!!!!!@@@@",
"))))))))))))@@@@))))))))))))@@@@",
"))))))))))))@@@@))))))))))))@@@@",
"@@@@@@@@@@@@@@@@@@@@@@@@@@@@@@@@",
"@@@@@@@@@@@@@@@@@@@@@@@@@@@@@@@@",
"@@@@@@@@@@@@@@@@@@@@@@@@@@@@@@@@"};
