/* XPM */
static char * potion_xpm[] = {
"32 32 98 2",
"  	c #A08662",
". 	c #38170A",
"+ 	c #2B0F06",
"@ 	c #8B6524",
"# 	c #B79457",
"$ 	c #391509",
"% 	c #1F2325",
"& 	c #592B07",
"* 	c #784B1F",
"= 	c #C5D1D7",
"- 	c #34383A",
"; 	c #484D4F",
"> 	c #595F61",
", 	c #E8E3DF",
"' 	c #796755",
") 	c #5A4E44",
"! 	c #A9ACB0",
"~ 	c #CACFC6",
"{ 	c #DDCFC2",
"] 	c #161A1C",
"^ 	c #171C1D",
"/ 	c #202627",
"( 	c #282F30",
"_ 	c #0E1112",
": 	c #3C2821",
"< 	c #806547",
"[ 	c #8B6F52",
"} 	c #553D35",
"| 	c #131719",
"1 	c #4E4F4A",
"2 	c #432E28",
"3 	c #4D3933",
"4 	c #FFFFFF",
"5 	c #635D4F",
"6 	c #605848",
"7 	c #ECF0F1",
"8 	c #6A6B61",
"9 	c #000911",
"0 	c #898F8C",
"a 	c #656155",
"b 	c #F7F6F4",
"c 	c #0081CD",
"d 	c #003041",
"e 	c #C9CECD",
"f 	c #0041AE",
"g 	c #54C7FF",
"h 	c #547480",
"i 	c #A9AFAD",
"j 	c #F4F7F8",
"k 	c #FBFAF9",
"l 	c #A8D4F2",
"m 	c #717770",
"n 	c #E0E6EA",
"o 	c #F2F0EE",
"p 	c #A8BEE3",
"q 	c #3A3E3C",
"r 	c #7F8A84",
"s 	c #99A2A3",
"t 	c #002EAE",
"u 	c #00ABFF",
"v 	c #88A4A8",
"w 	c #548DA8",
"x 	c #00FFFF",
"y 	c #748B8D",
"z 	c #9AADAB",
"A 	c #0061FF",
"B 	c #003D7E",
"C 	c #00A7FF",
"D 	c #6C7068",
"E 	c #777F79",
"F 	c #949C9D",
"G 	c #DDE4E4",
"H 	c #0080D9",
"I 	c #6D6E65",
"J 	c #A6B7BD",
"K 	c #0041FF",
"L 	c #001F65",
"M 	c #00B6FF",
"N 	c #005CCD",
"O 	c #001F8C",
"P 	c #007AFF",
"Q 	c #0099FF",
"R 	c #0077FF",
"S 	c #00D7FF",
"T 	c #A6D1FF",
"U 	c #0057FF",
"V 	c #002B8C",
"W 	c #00BFFF",
"X 	c #00E4FF",
"Y 	c #0082FF",
"Z 	c #006DFF",
"` 	c #A6E2FF",
" .	c #0042CD",
"..	c #002C77",
"+.	c #A6B5CF",
"@.	c #002CA5",
"#.	c #003D8C",
"$.	c #002EFF",
"                                                                ",
"                              . .                               ",
"                            + @ # .                             ",
"                            + $ $ .                             ",
"                          % $ & * $ %                           ",
"                        % = - ; > > , %     ' ) ' '             ",
"                          % ! ~ { ! %       ) ' ) '             ",
"                          ] ^ / ( ( _     ' ' '                 ",
"                          ] : < [ } |                           ",
"                      ' ' _ 1 2 3 4 %                           ",
"                ' ' ' ) ) _ 5 6 7 , %                           ",
"                  ' ' ) ' _ 5 5 7 4 %                           ",
"                          _ 8 6 7 4 |                           ",
"                      9 ] 6 0 a 7 b 4 % %                       ",
"                    9 c d 6 e 6 = 7 b 4 4 %                     ",
"                  9 f g h i 8 8 = = j k , 4 %                   ",
"  ' '           9 f l d 6 m 8 a = n o j 4 , 4 %                 ",
"  ' '           9 p f d q m r 5 s o 4 o j = , %                 ",
"              9 t h f u d a v 8 s = o n j 4 = , %               ",
"              9 f w d c x d y z 8 s = = 7 4 z = % ) ) )         ",
"              9 A B C d u d D E z r F = G 4 z z | ' ' '         ",
"              9 f B H d c u d d D z I r J 4 d d |               ",
"              9 K L H M d d u x d d d d J 4 N d 9               ",
"              9 O L H P Q R d c S u c d T 4 U N 9               ",
"                9 V L W P X Q d d d d T 4 Q Y 9                 ",
"                9 O L f H P P Q X C Z ` 4 P  .9                 ",
"                  9 O L L f M P P P T 4 M  .9                   ",
"                    9 O K L L ..+.4 ..N @.9                     ",
"              '       9 9 #.O $.O O @.9 9 '                     ",
"                          9 9 9 9 9 9   ' ' '             ' '   ",
"                                        ' ' '             ' '   ",
"                                                                "};
